<svg width="216" height="47" xmlns="http://www.w3.org/2000/svg" viewBox="0 0 1000 210.53">
  <g>
    <g>
      <g>
        <g>
          <path fill="#4476ff" d="M135.14,2.86c-3.36-1-6.8-1.83-10.28-2.49l-.96-.18-13.08,95.89,13.57-8.12.05-.45L135.89,3.08l-.75-.23Z"/>
          <path fill="#4476ff" d="M145.42,6.5l-1.11-.46-10.34,76.16,13.46-8.06.08-.44,8.43-62.13-.55-.3c-3.23-1.76-6.55-3.34-9.96-4.76Z"/>
          <path fill="#4476ff" d="M175.04,25.17c-3.1-2.77-6.36-5.34-9.75-7.73l-1.25-.87-7.03,51.82,13.68-8.19.06-.44,4.65-34.26-.37-.33Z"/>
        </g>
        <g>
          <path fill="#4476ff" d="M45.64,17.16l-.66.46c-2.89,2.03-5.67,4.21-8.33,6.52l-.74.64,66.26,70.08,2.15-15.73-.31-.33L45.64,17.16Z"/>
          <path fill="#4476ff" d="M64.68,6.66l-.59.25c-3.39,1.45-6.68,3.09-9.88,4.88l-1.05.58,52.67,55.62,2.13-15.62-.3-.32L64.68,6.66Z"/>
          <path fill="#4476ff" d="M111.36,25.03L87.64,0l-.48.08c-4.11.73-8.14,1.67-12.08,2.86l-1.46.44,35.86,37.86,2.17-15.88-.3-.33Z"/>
        </g>
        <g>
          <path fill="#4476ff" d="M208.87,85.83c-.65-3.66-1.49-7.27-2.49-10.8l-.34-1.16-65.56,39.33,14.64,5.59.38-.23,53.48-32.09-.11-.64Z"/>
          <path fill="#4476ff" d="M202.81,64.65c-1.33-3.3-2.82-6.52-4.46-9.64l-.46-.87-82.61,49.48,14.77,5.62.38-.24,72.68-43.61-.3-.74Z"/>
          <path fill="#4476ff" d="M210.27,97.5l-.1-1.51-44.61,26.76,14.89,5.66.38-.22,29.54-17.72.02-.51c.08-1.79.13-3.6.13-5.41,0-2.38-.09-4.73-.25-7.05Z"/>
        </g>
        <g>
          <path fill="#4476ff" d="M65.39,173.04l.14.43,10.57,32.93.48.13c3.95,1.13,7.99,2.03,12.11,2.7l1.49.23-15.99-49.77-8.8,13.36Z"/>
          <path fill="#4476ff" d="M103.89,114.55l-8.73,13.25.14.42,26.03,81.06.79-.11c3.51-.57,6.95-1.32,10.33-2.22l.95-.26-29.51-92.13Z"/>
          <path fill="#4476ff" d="M80.35,150.31l.13.42,19.17,59.65.64.04c1.64.07,3.27.11,4.94.11,2.04,0,4.06-.06,6.07-.18l1.2-.06-23.49-73.13-8.65,13.16Z"/>
        </g>
        <g>
          <path fill="#4476ff" d="M27.22,115.84l-.25.38-18.98,28.88.19.46c1.61,3.85,3.46,7.57,5.48,11.16l.75,1.32,28.66-43.61-15.84,1.41Z"/>
          <path fill="#4476ff" d="M80.88,111.09l-.24.38-46.68,71.05.59.53c2.61,2.38,5.33,4.64,8.17,6.74l.78.58,53.12-80.67-15.73,1.39Z"/>
          <path fill="#4476ff" d="M54.18,113.46l-.24.37-34.35,52.26.38.53c2.15,3,4.45,5.89,6.9,8.64l.79.89,42.11-64.08-15.6,1.38Z"/>
        </g>
        <g>
          <path fill="#4476ff" d="M84.96,89.43l-.44.04L.26,97l-.04.81c-.13,2.19-.23,4.42-.23,6.67,0,1.33.04,2.65.09,3.94l.03.99,95.74-8.47-10.9-11.51Z"/>
          <path fill="#4476ff" d="M47.8,50.12l-.44.04-34.26,3.06-.23.44c-1.98,3.63-3.73,7.41-5.29,11.28l-.55,1.4,51.74-4.62-10.98-11.61Z"/>
          <path fill="#4476ff" d="M66.48,69.87l-.44.04-62.01,5.54-.17.61c-.98,3.55-1.77,7.15-2.39,10.84l-.2,1.18,76.01-6.79-10.8-11.42Z"/>
        </g>
        <g>
          <path fill="#4476ff" d="M112.19,111.86l4.85,15.12.42.16,79.16,30.03.39-.7c1.72-3.08,3.3-6.25,4.72-9.52l.39-.9-89.93-34.2Z"/>
          <path fill="#4476ff" d="M125.27,152.67l.42.16,58.23,22.09.43-.48c2.41-2.78,4.7-5.69,6.82-8.7l.69-.98-71.4-27.09,4.81,15Z"/>
          <path fill="#4476ff" d="M133.58,178.63l.42.16,32.14,12.19.4-.29c3.36-2.44,6.6-5.04,9.66-7.85l1.11-1.02-48.6-18.44,4.88,15.25Z"/>
        </g>
      </g>
      <g>
        <path d="M328.16,148.31c-6.32,1.48-13.12,2.72-19.68,2.72-27.98,0-47.41-14.01-47.4-43.23,0-29.59,18.09-46.17,47.43-46.16,5.69,0,13.24,1.12,19.55,3.6l-1.24,14.6c-6.56-3.72-12.5-4.58-18.69-4.58-17.82,0-28.97,13.61-28.98,31.31,0,17.58,10.89,30.83,29.34,30.84,6.8,0,14.85-1.48,18.94-3.58l.74,14.49Z"/>
        <path d="M340.32,63.14l48.04.02v13.62s-30.71-.01-30.71-.01v21.29s29.21.01,29.21.01v13.62s-29.22-.01-29.22-.01v37.88s-17.34,0-17.34,0l.03-86.42Z"/>
        <path d="M416.45,63.17h19.56s33.89,86.43,33.89,86.43h-19.19s-7.42-19.82-7.42-19.82h-35.04s-7.56,19.79-7.56,19.79h-17.95s33.7-86.41,33.7-86.41ZM425.98,80.5h-.25l-12.52,35.65h25.25s-12.49-35.65-12.49-35.65Z"/>
        <path d="M505.34,63.2h17.33s-.03,86.42-.03,86.42h-17.33s.03-86.42.03-86.42Z"/>
        <path d="M541,85.87h15.71v8.67h.24c5.21-7.3,12.27-10.15,20.93-10.15,15.1,0,21.66,10.66,21.66,25.01l-.02,40.24h-16.59s0-34.05,0-34.05c0-7.8-.11-18.32-10.77-18.33-12,0-14.61,12.99-14.61,21.16v31.19s-16.6,0-16.6,0l.03-63.76Z"/>
        <path d="M655.13,99.28c-5.08-1.74-8.79-2.73-14.85-2.73-4.45,0-9.78,1.61-9.79,7.05,0,10.15,28.85,3.72,28.83,26.75,0,14.85-13.24,20.8-26.74,20.79-6.31,0-12.75-1.12-18.82-2.73l1-13.61c5.19,2.6,10.65,4.21,16.34,4.21,4.21,0,10.89-1.6,10.89-7.79.01-12.51-28.84-3.97-28.83-27,0-13.74,12.02-19.8,25.02-19.8,7.8,0,12.87,1.24,18.06,2.36l-1.12,12.5Z"/>
        <path d="M675.81,98.05h-12.26v-12.13h12.26s0-12.75,0-12.75l16.6-5.32v18.07s14.73,0,14.73,0v12.13s-14.74,0-14.74,0l-.02,29.71c0,5.44,1.48,10.52,7.8,10.52,2.97,0,5.82-.62,7.55-1.73l.5,13.12c-3.47.99-7.31,1.48-12.26,1.48-13,0-20.18-8.06-20.18-20.68l.02-32.44Z"/>
        <path d="M720.74,85.93h16.59s-.02,63.76-.02,63.76h-16.59s.02-63.76.02-63.76ZM720.76,58.45h16.59s-.01,15.85-.01,15.85h-16.59s.01-15.85.01-15.85Z"/>
        <path d="M758.38,98.08h-12.26s0-12.14,0-12.14h12.26s0-12.75,0-12.75l16.59-5.32v18.07h14.73s0,12.13,0,12.13h-14.73s-.01,29.71-.01,29.71c0,5.44,1.48,10.52,7.79,10.52,2.97,0,5.82-.61,7.55-1.73l.5,13.12c-3.47.99-7.3,1.48-12.26,1.48-13,0-20.18-8.05-20.17-20.68v-32.43Z"/>
        <path d="M859.63,149.74h-15.72v-8.67h-.26c-5.07,6.18-12.25,10.14-20.92,10.14-15.11,0-21.66-10.66-21.66-25.02l.02-40.23h16.59s-.01,34.05-.01,34.05c0,7.8.11,18.33,10.76,18.33,12.01,0,14.62-12.99,14.63-21.16v-31.2s16.6,0,16.6,0l-.02,63.76Z"/>
        <path d="M879.7,98.12h-12.26v-12.14h12.26s0-12.75,0-12.75l16.6-5.32v18.08s14.73,0,14.73,0v12.13s-14.74,0-14.74,0l-.02,29.71c0,5.44,1.48,10.52,7.79,10.52,2.97,0,5.83-.62,7.55-1.73l.5,13.12c-3.47.99-7.31,1.48-12.26,1.48-13,0-20.18-8.06-20.18-20.68l.02-32.44Z"/>
        <path d="M972.28,146.19c-6.07,3.34-13,5.07-21.92,5.07-21.04,0-33.3-12.15-33.29-33.07,0-18.44,9.79-33.67,29.6-33.66,23.64,0,30.32,16.23,30.32,38.51h-44.07c.73,10.26,7.91,16.08,18.19,16.09,8.05,0,14.98-2.97,21.17-6.43v13.5ZM961.15,111.65c-.5-8.05-4.2-14.98-13.49-14.99-9.28,0-13.99,6.43-14.74,14.97h28.23Z"/>
      </g>
      <path d="M980.27,82.72c-2.18-2.16-3.27-4.87-3.27-8.14s1.09-5.98,3.27-8.14,4.93-3.24,8.23-3.24,6.05,1.08,8.23,3.24c2.18,2.16,3.27,4.87,3.27,8.14s-1.09,5.98-3.27,8.14c-2.18,2.16-4.93,3.24-8.23,3.24s-6.05-1.08-8.23-3.24ZM981.71,67.82c-1.75,1.77-2.63,4.03-2.63,6.76s.88,4.99,2.63,6.76c1.75,1.77,4.02,2.66,6.79,2.66s5.04-.89,6.79-2.66,2.63-4.03,2.63-6.76-.88-4.99-2.63-6.76c-1.75-1.77-4.02-2.66-6.79-2.66s-5.04.89-6.79,2.66ZM990.88,80.76l-2.51-4.41h-1.59v4.41h-2.63v-12.36h4.59c1.35,0,2.47.36,3.36,1.07.9.71,1.35,1.68,1.35,2.91,0,1.75-.84,2.94-2.51,3.55l2.94,4.83h-3ZM986.78,74.27h1.71c1.51,0,2.26-.59,2.26-1.77s-.76-1.78-2.26-1.78h-1.71v3.55Z"/>
    </g>
  </g>
</svg>